<!--?xml version="1.0" standalone="no"?-->
              <svg id="sw-js-blob-svg" viewBox="0 0 100 100" xmlns="http://www.w3.org/2000/svg" version="1.1">
                    <defs> 
                        <linearGradient id="sw-gradient" x1="0" x2="1" y1="1" y2="0">
                            <stop id="stop1" stop-color="rgba(27, 38, 44, 1)" offset="0%"></stop>
                            <stop id="stop2" stop-color="rgba(15, 76, 117, 1)" offset="100%"></stop>
                        </linearGradient>
                    </defs>
                <path fill="url(#sw-gradient)" d="M16.4,-30.5C21.7,-25.3,26.8,-21.9,30.9,-17.1C34.9,-12.3,37.9,-6.1,39.7,1.1C41.6,8.3,42.3,16.6,39,22.6C35.6,28.5,28.2,32.2,21,36.1C13.8,40,6.9,44.1,1,42.4C-4.9,40.7,-9.9,33.2,-14.5,27.8C-19.1,22.4,-23.3,19.2,-26.8,14.9C-30.3,10.6,-33.1,5.3,-32.8,0.2C-32.5,-5,-29.1,-9.9,-26.1,-15.1C-23.1,-20.2,-20.5,-25.6,-16.2,-31.4C-11.9,-37.1,-6,-43.3,-0.2,-43C5.5,-42.6,11,-35.7,16.4,-30.5Z" width="100%" height="100%" transform="translate(50 50)" stroke-width="0" style="transition: all 0.3s ease 0s;" stroke="url(#sw-gradient)"></path>
              </svg>