<!--?xml version="1.0" standalone="no"?-->
              <svg id="sw-js-blob-svg" viewBox="0 0 100 100" xmlns="http://www.w3.org/2000/svg" version="1.1">
                    <defs> 
                        <linearGradient id="sw-gradient" x1="0" x2="1" y1="1" y2="0">
                            <stop id="stop1" stop-color="rgba(27, 38, 44, 1)" offset="0%"></stop>
                            <stop id="stop2" stop-color="rgba(15, 76, 117, 1)" offset="100%"></stop>
                        </linearGradient>
                    </defs>
                <path fill="url(#sw-gradient)" d="M18,-32.5C20.6,-29.8,18.1,-19.4,20.6,-12.7C23.1,-6,30.7,-3,32.6,1.1C34.4,5.2,30.6,10.3,26.6,14.4C22.6,18.5,18.4,21.6,14,24.3C9.5,27,4.7,29.4,0.1,29.3C-4.6,29.1,-9.1,26.4,-16,25.1C-22.9,23.8,-32.2,23.9,-33.5,19.9C-34.7,15.9,-28.1,8,-27.1,0.5C-26.2,-6.9,-31.1,-13.8,-31.5,-20.8C-32,-27.8,-28.1,-34.8,-22.1,-35.6C-16.1,-36.3,-8.1,-30.8,-0.2,-30.5C7.7,-30.2,15.5,-35.2,18,-32.5Z" width="100%" height="100%" transform="translate(50 50)" stroke-width="0" style="transition: all 0.3s ease 0s;" stroke="url(#sw-gradient)"></path>
              </svg>