<?xml version="1.0" encoding="UTF-8"?><svg id="a" xmlns="http://www.w3.org/2000/svg" viewBox="0 0 53 53"><defs><style>.b{fill:#fff;}.c{fill:#183153;}.d{fill:none;stroke:#183153;stroke-miterlimit:10;stroke-width:3px;}</style></defs><g><rect class="d" x="1.5" y="1.5" width="50" height="50" rx="2.85" ry="2.85"/><rect class="c" x="2.5" y="2.5" width="48" height="48" rx="3.04" ry="3.04"/></g><path class="b" d="M21.12,13.5l-8.29,26h3.41l2.48-8h8.46l2.55,8h3.52L24.92,13.5h-3.8Zm-1.78,15l2.34-7.38c.46-1.55,.85-3.11,1.21-4.62h.07c.36,1.48,.71,2.99,1.24,4.66l2.34,7.34h-7.21Z"/><path class="b" d="M38.15,17.67c1.27,0,2.07-.93,2.03-2.09,0-1.2-.76-2.12-1.96-2.12s-1.99,.93-1.99,2.12,.8,2.09,1.92,2.09Z"/><rect class="b" x="36.5" y="20.5" width="3" height="19"/></svg>